# xmcd
#
# Track frame offsets: 
#        150
#        15831
#        43052
#        70212
#        94540
#        117524
#        157365
#        182675
#        208067
#        223851
#
# Disc length: 3278 seconds
#
# Revision: 1
# Processed by: cddbd v1.5.2PL0 Copyright (c) Steve Scherf et al.
# Submitted via: ExactAudioCopy v0.95b4
#
DISCID=8f0ccc0a
DTITLE=Ernesto Snajer and Grupo - Despues De Todo
DYEAR=2006
DGENRE=Jazz
TTITLE0=Argentiada
TTITLE1=Volviendo
TTITLE2=Elgua
TTITLE3=Zamba Del Recuerdo
TTITLE4=El Poste
TTITLE5=Por Amor
TTITLE6=Perfume De Jazmin
TTITLE7=Inmigrasong
TTITLE8=Chacarera De Los Artistas
TTITLE9=Despues De Todo
EXTD=YEAR: 2006
EXTT0=
EXTT1=
EXTT2=
EXTT3=
EXTT4=
EXTT5=
EXTT6=
EXTT7=
EXTT8=
EXTT9=
PLAYORDER=
